<svg xmlns="http://www.w3.org/2000/svg" viewBox="0 0 192 192">
  <!-- Sfondo verde scuro con angoli arrotondati (stile icona app) -->
  <rect width="192" height="192" rx="38" fill="#1a3a1c"/>
  <!-- Libro aperto centrato -->
  <!-- Pagina sinistra -->
  <path d="M22 52 C22 48 26 46 30 47 L92 58 L92 148 L30 136 C26 135 22 132 22 128 Z"
        fill="#254d28" stroke="#c9a84c" stroke-width="2.5"/>
  <!-- Pagina destra -->
  <path d="M170 52 C170 48 166 46 162 47 L100 58 L100 148 L162 136 C166 135 170 132 170 128 Z"
        fill="#254d28" stroke="#c9a84c" stroke-width="2.5"/>
  <!-- Dorso centrale -->
  <line x1="96" y1="56" x2="96" y2="149" stroke="#c9a84c" stroke-width="3.5"/>
  <!-- Righe pagina sinistra -->
  <line x1="34" y1="74"  x2="85" y2="80"  stroke="#c9a84c" stroke-width="2.2" stroke-linecap="round" opacity=".75"/>
  <line x1="34" y1="88"  x2="85" y2="94"  stroke="#c9a84c" stroke-width="2.2" stroke-linecap="round" opacity=".75"/>
  <line x1="34" y1="102" x2="85" y2="108" stroke="#c9a84c" stroke-width="2.2" stroke-linecap="round" opacity=".75"/>
  <line x1="34" y1="116" x2="76" y2="121" stroke="#c9a84c" stroke-width="2.2" stroke-linecap="round" opacity=".5"/>
  <!-- Righe pagina destra -->
  <line x1="158" y1="74"  x2="107" y2="80"  stroke="#c9a84c" stroke-width="2.2" stroke-linecap="round" opacity=".75"/>
  <line x1="158" y1="88"  x2="107" y2="94"  stroke="#c9a84c" stroke-width="2.2" stroke-linecap="round" opacity=".75"/>
  <line x1="158" y1="102" x2="107" y2="108" stroke="#c9a84c" stroke-width="2.2" stroke-linecap="round" opacity=".75"/>
  <line x1="158" y1="116" x2="116" y2="121" stroke="#c9a84c" stroke-width="2.2" stroke-linecap="round" opacity=".5"/>
</svg>